<svg xmlns="http://www.w3.org/2000/svg" viewBox="0 0 800 500"><rect width="800" height="500" fill="#f2efe9"/><rect width="800" height="500" fill="url(#g)"/><defs><radialGradient id="g" cx="50%" cy="35%" r="80%"><stop offset="0%" stop-color="#ffffff"/><stop offset="100%" stop-color="#f2efe9"/></radialGradient></defs>
<g stroke="#a97b2f" stroke-width="6" fill="none">
<rect x="130" y="100" width="110" height="110" rx="10" fill="#a97b2f" fill-opacity="0.12"/><line x1="150" y1="190" x2="220" y2="120"/><line x1="150" y1="160" x2="190" y2="120"/><line x1="180" y1="190" x2="220" y2="150"/>
<rect x="260" y="100" width="110" height="110" rx="10" fill="#a97b2f" fill-opacity="0.12"/><line x1="280" y1="190" x2="350" y2="120"/><line x1="280" y1="160" x2="320" y2="120"/><line x1="310" y1="190" x2="350" y2="150"/>
<rect x="130" y="230" width="110" height="110" rx="10" fill="#a97b2f" fill-opacity="0.12"/><line x1="150" y1="320" x2="220" y2="250"/><line x1="150" y1="290" x2="190" y2="250"/><line x1="180" y1="320" x2="220" y2="280"/>
<rect x="260" y="230" width="110" height="110" rx="10" fill="#a97b2f" fill-opacity="0.12"/><line x1="280" y1="320" x2="350" y2="250"/><line x1="280" y1="290" x2="320" y2="250"/><line x1="310" y1="320" x2="350" y2="280"/>
<path d="M 470 300 q 20 -60 40 0 q 20 60 40 0 q 20 -60 40 0 q 20 60 40 0" stroke="#c2553f" stroke-linecap="round"/>
<circle cx="560" cy="170" r="46" fill="#c2553f" fill-opacity="0.12" stroke="#c2553f"/><text x="560" y="182" font-size="34" text-anchor="middle" fill="#c2553f" font-family="Inter,system-ui" font-weight="800" stroke="none">ISNA</text>
</g>
<g fill="#4a453e" font-family="Inter,system-ui" text-anchor="middle"><text x="400" y="465" font-size="26" font-weight="700" opacity="0.85">Traitement acoustique et décor — le son et l'image de l'école</text></g></svg>
