<?xml version="1.0" encoding="UTF-8" standalone="no"?>
<svg version="1.1" xmlns="http://www.w3.org/2000/svg"
 width="500" height="500" viewBox="0 0 500 500">
<style>svg { background: transparent; }</style>
<g transform="translate(0.000000,500.000000) scale(0.250000,-0.250000)"
fill="#FFFFFF" stroke="none">
<path d="M910 1745 c-3 -3 -3 -3 -29 -3 -26 0 -26 0 -29 -3 -3 -3 -3 -3 -13
-3 -10 -1 -10 -1 -13 -4 -3 -3 -4 -3 -10 -3 -6 0 -7 0 -9 -3 -2 -2 -3 -3 -13
-3 -10 0 -11 -1 -13 -3 -2 -4 -3 -4 -10 -4 -7 0 -7 0 -10 -4 -3 -2 -4 -3 -6
-2 -3 0 -4 0 -6 -3 -4 -4 -4 -4 -10 -4 -7 0 -7 0 -11 -3 -2 -3 -3 -4 -6 -3 -2
0 -3 0 -4 -1 -1 -1 -4 -4 -6 -7 -5 -5 -5 -5 -12 -5 -7 0 -7 0 -13 -6 -5 -6 -6
-7 -10 -7 -3 0 -4 -1 -6 -3 -2 -3 -4 -3 -7 -4 -3 0 -4 -1 -13 -9 -8 -9 -9 -10
-12 -10 -3 0 -5 -1 -15 -11 -6 -7 -12 -13 -13 -14 -1 0 -2 -1 -4 -1 -3 0 -5
-1 -25 -21 -20 -20 -21 -21 -21 -25 0 -3 -1 -4 -2 -5 -2 -1 -24 -23 -24 -24 0
0 -1 -1 -3 -2 -3 -2 -3 -2 -3 -6 0 -4 -2 -7 -11 -15 -1 -1 -2 -3 -2 -5 0 -3
-1 -5 -2 -6 -9 -7 -11 -10 -11 -14 0 -3 0 -4 -3 -5 -3 -2 -3 -3 -3 -6 0 -4 0
-5 -6 -11 -7 -6 -7 -6 -7 -13 0 -7 0 -7 -6 -13 -7 -5 -7 -5 -7 -13 0 -7 0 -7
-4 -10 -3 -2 -3 -2 -3 -9 1 -6 1 -6 -2 -9 -3 -3 -4 -4 -4 -7 0 -3 -1 -4 -4 -7
-3 -3 -3 -3 -2 -9 0 -7 0 -8 -4 -10 -3 -2 -3 -2 -3 -13 0 -11 0 -11 -3 -12 -3
-2 -3 -2 -3 -16 0 -15 0 -15 -3 -17 -4 -2 -4 -2 -4 -67 0 -66 0 -66 4 -68 3
-3 3 -3 3 -13 0 -10 0 -10 3 -13 3 -2 3 -2 3 -16 0 -14 0 -14 4 -16 3 -3 3 -3
3 -17 0 -13 0 -13 3 -16 3 -3 3 -3 3 -25 0 -23 0 -23 -3 -26 -3 -3 -3 -3 -3
-16 0 -14 0 -14 -3 -17 -4 -2 -4 -2 -4 -26 0 -23 0 -23 3 -25 4 -2 4 -3 4 -10
-1 -6 -1 -6 7 -14 5 -4 9 -9 10 -9 1 -1 2 -2 2 -5 0 -6 1 -7 7 -7 2 0 5 -1 5
-2 0 0 2 -3 5 -6 4 -4 6 -5 9 -5 2 0 4 -1 6 -3 3 -4 3 -4 26 -4 22 0 22 0 25
4 3 2 4 3 8 3 4 0 4 0 6 3 1 3 2 3 5 3 4 0 5 1 18 13 7 8 14 14 15 15 1 1 1 2
1 4 -1 3 0 4 3 7 3 3 3 3 3 35 0 29 0 33 -2 34 -5 5 -5 5 -5 11 1 7 1 8 -3 10
-3 2 -3 3 -3 6 0 4 0 5 -4 7 -3 3 -3 4 -3 7 0 3 0 4 -3 6 -3 2 -3 3 -3 7 0 3
0 4 -3 6 -4 2 -4 3 -4 7 1 3 1 4 -3 6 -3 2 -3 2 -3 13 0 11 1 10 -5 14 -1 1
-1 2 -1 13 0 15 0 17 -4 19 -3 1 -3 1 -3 21 0 21 0 21 -3 23 -3 2 -3 2 -3 36
0 33 0 33 3 35 3 2 3 2 3 23 0 20 0 20 3 22 4 2 4 3 4 13 0 10 0 10 3 13 3 3
3 3 3 13 0 8 0 10 1 11 6 4 6 5 6 8 -1 3 2 8 5 8 1 0 1 2 1 4 0 3 1 5 2 6 5 5
5 5 4 11 0 6 0 7 1 8 1 1 5 4 8 7 4 5 5 6 5 8 -1 3 0 4 4 8 1 1 2 3 2 6 0 3 0
4 2 5 1 0 4 2 6 5 4 4 5 5 5 9 0 3 0 4 2 5 2 1 3 2 4 4 1 1 3 3 4 4 3 1 3 2 3
5 0 4 1 5 34 38 32 32 34 34 37 34 2 -1 3 -1 5 1 1 1 5 6 9 10 7 7 9 8 12 8 3
0 4 1 6 3 2 2 3 3 6 3 3 0 4 1 7 4 2 2 3 3 6 3 4 0 5 1 10 7 7 6 7 6 13 6 6
-1 6 -1 9 3 3 2 4 3 7 3 3 0 4 1 7 4 3 3 3 3 9 3 6 -1 6 -1 9 2 3 4 3 4 14 4
8 0 10 0 11 2 5 5 4 5 15 5 9 -1 9 -1 13 3 3 3 3 3 71 3 67 0 67 0 70 -3 3 -3
3 -3 13 -3 10 0 10 -1 13 -4 3 -3 3 -3 10 -3 7 0 7 0 9 -3 3 -3 3 -3 10 -3 7
0 7 -1 10 -4 2 -3 3 -3 10 -3 6 0 7 0 10 -3 2 -3 3 -4 6 -3 3 0 4 0 8 -5 1 -1
2 -2 5 -2 3 0 4 0 6 -3 2 -2 3 -3 6 -3 3 0 5 -1 7 -3 3 -3 4 -4 7 -4 3 0 4 -1
9 -6 6 -6 7 -7 10 -7 3 0 5 -1 10 -6 3 -4 6 -7 7 -7 0 0 1 -1 2 -3 2 -3 3 -3
6 -3 4 0 5 -1 34 -30 29 -29 31 -31 31 -34 0 -3 1 -5 4 -8 3 -3 6 -5 7 -6 2
-1 2 -2 2 -5 0 -4 1 -5 7 -11 5 -5 6 -6 6 -10 0 -2 1 -4 1 -5 1 0 4 -3 7 -5 5
-5 5 -5 5 -11 -1 -7 0 -9 3 -11 3 -1 3 -2 3 -5 0 -3 1 -5 4 -7 2 -3 3 -4 3 -6
0 -4 0 -5 3 -7 3 -2 3 -2 3 -9 0 -8 0 -9 4 -11 3 -2 3 -2 3 -9 -1 -6 -1 -6 2
-9 4 -4 4 -4 4 -14 0 -11 0 -11 3 -12 2 -1 3 -3 3 -4 1 -1 1 -13 1 -27 0 -25
0 -25 3 -28 3 -2 3 -2 3 -26 0 -23 0 -23 -3 -25 -3 -3 -3 -3 -3 -35 0 -17 0
-32 -1 -33 0 -1 -1 -3 -3 -4 -3 -1 -3 -1 -3 -12 0 -10 0 -10 -3 -13 -3 -3 -3
-3 -13 0 -10 0 -11 -4 -13 -3 -2 -3 -2 -3 -13 0 -11 0 -11 -3 -13 -3 -2 -3
-2 -3 -7 0 -3 -1 -4 -4 -6 -3 -2 -3 -2 -3 -8 1 -7 1 -9 -3 -11 -3 -2 -3 -3 -3
-6 0 -4 -1 -5 -6 -9 -1 -1 -1 -2 -1 -7 1 -7 1 -9 -3 -11 -3 -1 -3 -2 -3 -6 0
-3 0 -4 -3 -6 -4 -2 -4 -3 -4 -8 0 -2 0 -4 -1 -4 -2 0 -5 -4 -5 -8 0 -3 -1 -4
-7 -9 -5 -6 -6 -7 -6 -10 0 -4 0 -5 -3 -6 -3 -2 -3 -2 -3 -6 0 -4 -1 -5 -6
-10 -3 -3 -6 -7 -7 -8 -2 -3 -5 -3 -7 1 -2 2 -3 3 -6 3 -3 0 -4 1 -10 7 -5 5
-6 6 -10 6 -3 0 -4 0 -6 3 -1 1 -2 3 -3 3 -1 1 -2 2 -4 4 -2 2 -3 3 -6 3 -3 0
-4 1 -7 4 -3 3 -3 3 -6 3 -3 -1 -4 -1 -8 4 -1 1 -3 2 -5 2 -3 0 -4 1 -6 3 -2
2 -3 3 -6 3 -3 0 -5 1 -7 3 -3 3 -4 4 -7 4 -3 0 -4 1 -6 3 -2 2 -3 3 -6 3 -2
0 -4 1 -5 2 -5 5 -5 5 -12 5 -7 0 -7 0 -9 3 -2 3 -3 3 -7 3 -4 0 -4 0 -6 3 -2
3 -6 5 -10 4 -3 -2 -8 0 -10 3 -1 3 -2 3 -9 3 -6 0 -7 0 -10 3 -3 3 -3 3 -19
3 -17 1 -17 1 -20 4 -2 3 -2 3 -29 3 -27 0 -27 0 -30 5 0 0 -2 1 -4 2 -4 0 -5
0 -9 -5 -1 -2 -5 -2 -27 -2 -27 0 -27 0 -30 -3 -2 -3 -2 -3 -16 -4 -13 0 -13
0 -16 -3 -2 -3 -3 -3 -10 -3 -6 0 -7 0 -10 -4 -3 -3 -3 -3 -9 -2 -6 0 -6 0 -9
-3 -3 -3 -5 -4 -7 -4 -3 0 -4 -1 -6 -3 -2 -3 -3 -3 -7 -3 -3 0 -4 0 -6 -3 -3
-4 -4 -4 -7 -4 -4 0 -5 0 -6 -3 -2 -3 -2 -3 -6 -3 -4 0 -5 0 -7 -4 -3 -2 -4
-3 -7 -3 -3 0 -4 -1 -10 -6 -5 -6 -6 -7 -9 -6 -3 0 -4 -1 -13 -10 -8 -9 -10
-10 -13 -10 -3 0 -4 -1 -13 -9 -8 -9 -9 -10 -12 -10 -3 0 -5 -1 -15 -11 -6 -7
-12 -13 -13 -13 -1 -1 -3 -2 -5 -2 -5 0 -6 -1 -6 -6 0 -6 -1 -7 -6 -7 -4 0 -5
-1 -13 -9 -9 -9 -10 -10 -13 -10 -3 0 -5 -1 -6 -2 -1 -1 -5 -6 -9 -10 -7 -7
-9 -8 -12 -8 -3 0 -4 0 -6 -3 -2 -2 -3 -3 -6 -3 -3 0 -4 -1 -10 -6 -6 -7 -6
-7 -13 -7 -7 0 -7 0 -9 -3 -3 -3 -3 -3 -10 -4 -7 0 -7 0 -10 -3 -2 -3 -2 -3
-22 -3 -20 0 -20 0 -23 -3 -3 -3 -3 -3 -9 -3 -7 0 -7 0 -12 -5 -1 -1 -3 -2 -5
-2 -3 0 -4 -1 -7 -3 -1 -2 -3 -4 -4 -5 -1 -1 -2 -3 -2 -5 0 -4 0 -5 -2 -5 -4
-2 -4 -3 -4 -23 l0 -20 14 -14 15 -15 29 0 c30 0 30 0 32 3 2 3 2 3 16 3 13 0
13 0 16 4 3 2 4 3 7 3 3 0 4 1 6 3 2 2 3 3 6 3 3 0 5 1 8 4 3 3 3 3 9 3 5 -1
5 -1 9 3 3 2 5 3 7 3 3 0 4 1 10 6 5 6 6 7 9 7 3 0 4 1 6 3 2 2 4 3 7 4 4 0 6
1 14 10 8 8 9 9 13 9 3 0 4 0 5 3 1 2 3 3 4 3 1 1 2 2 2 2 0 0 3 3 6 6 3 3 6
6 6 7 1 0 5 5 10 9 6 7 8 8 11 8 3 0 5 2 19 17 16 15 17 16 21 16 2 0 4 0 4 1
0 0 4 5 9 9 7 8 9 9 12 9 3 0 4 1 13 10 9 9 10 10 13 10 3 -1 4 -1 6 3 2 3 3
3 6 3 4 0 5 0 7 3 2 2 3 3 6 3 3 0 4 1 7 4 3 3 3 3 10 3 6 0 7 0 9 3 3 3 3 3
12 3 10 0 10 0 14 3 3 4 4 4 10 4 6 0 7 0 9 3 3 3 3 3 52 3 49 0 49 0 52 -3 2
-3 2 -3 12 -3 10 0 10 0 13 -3 4 -4 4 -4 13 -4 10 1 10 1 13 -3 3 -3 3 -3 10
-3 6 0 7 0 10 -3 2 -3 3 -4 6 -4 4 0 5 0 7 -3 2 -2 3 -3 6 -3 3 0 4 -1 6 -3 2
-3 4 -4 6 -4 2 0 4 0 5 0 0 0 2 -1 3 -3 1 -3 2 -3 5 -3 4 0 5 -1 10 -6 6 -6 7
-7 10 -7 4 0 5 -1 7 -4 1 -2 2 -2 5 -2 4 0 5 -1 10 -6 6 -6 7 -7 10 -7 2 0 4
-1 5 -2 7 -8 11 -11 15 -11 3 0 4 -1 9 -6 6 -6 7 -7 10 -7 3 0 4 -1 10 -7 5
-5 6 -6 10 -6 3 0 7 -3 14 -12 1 0 2 -1 5 -1 3 0 4 0 6 -3 2 -2 3 -3 6 -3 3 0
5 -1 7 -3 3 -4 4 -4 10 -4 6 0 7 0 9 -3 2 -2 4 -3 7 -3 3 0 4 -1 7 -3 3 -4 3
-4 13 -4 11 0 11 0 12 -3 2 -3 3 -3 6 -3 4 0 5 -1 46 -42 39 -40 42 -42 45
-42 3 0 4 -1 6 -3 2 -3 2 -3 39 -3 37 0 37 0 39 3 2 3 2 3 9 3 7 0 7 0 41 34
l34 34 0 111 c0 111 0 111 -3 111 -3 0 -5 -3 -4 -7 0 -3 -3 -6 -7 -6 -5 0 -12
-8 -12 -13 0 -4 -1 -5 -3 -6 -2 -1 -3 -2 -3 -2 0 -3 -4 -5 -7 -4 -5 0 -7 -3
-6 -7 0 -2 0 -3 -2 -5 -1 -1 -4 -4 -7 -6 -2 -3 -5 -6 -6 -6 -1 -2 -3 -3 -10
-10 -3 -4 -5 -5 -8 -5 -5 0 -6 -1 -6 -5 0 -6 -7 -14 -13 -14 -5 0 -13 -8 -13
-14 0 -5 -2 -6 -10 -6 -6 0 -6 0 -37 31 -31 31 -31 31 -31 37 0 6 0 7 4 9 3 3
3 3 3 11 0 7 0 7 3 9 4 2 4 3 4 6 -1 3 0 4 3 6 2 3 3 4 3 8 0 3 0 4 3 6 4 2 4
3 3 10 0 6 0 6 4 9 3 4 3 4 3 9 -1 6 0 9 3 11 3 1 3 2 3 5 0 4 0 5 4 8 3 2 3
2 3 11 0 5 0 9 0 11 0 1 1 2 3 3 3 2 3 2 3 13 0 11 0 11 3 13 4 2 4 4 4 14 -1
8 -1 8 3 12 3 3 3 3 3 16 0 14 0 14 3 16 1 1 3 2 3 2 0 0 0 10 0 23 0 13 0 24
1 25 0 0 2 1 3 2 3 2 3 2 3 54 0 53 0 53 -3 55 -4 3 -4 3 -4 27 0 12 0 23 0
23 0 0 -2 1 -3 2 -3 2 -3 2 -3 16 0 13 0 13 -4 17 -3 3 -3 3 -2 9 0 7 0 7 -3
9 -4 3 -4 3 -4 14 0 10 0 10 -3 12 -3 2 -3 3 -3 7 0 3 0 4 -3 6 -4 2 -4 3 -4
8 0 3 0 4 -3 5 -4 2 -4 4 -3 11 0 6 0 6 -3 9 -4 2 -4 3 -4 5 1 4 0 6 -3 8 -3
1 -3 2 -3 5 0 4 0 5 -6 11 -6 5 -7 6 -7 10 0 3 0 4 -3 5 -3 2 -4 5 -4 8 1 2
-8 12 -11 13 -1 0 -1 2 -1 5 -1 4 -1 5 -5 9 -8 7 -9 8 -9 9 0 0 -1 1 -3 2 -3
2 -3 3 -3 6 0 4 -1 5 -37 41 -34 34 -37 37 -40 37 -3 0 -5 1 -9 5 -3 3 -5 6
-5 6 0 1 -1 1 -2 2 -1 0 -3 1 -4 3 -1 3 -2 3 -5 3 -4 0 -5 1 -13 9 -8 9 -10
10 -14 10 -3 1 -5 2 -7 4 -2 2 -3 3 -6 3 -3 0 -4 1 -9 7 -6 5 -7 6 -10 6 -3 0
-4 1 -6 3 -2 3 -4 3 -7 3 -3 1 -5 1 -7 4 -2 2 -3 3 -6 3 -4 0 -5 0 -6 3 -2 3
-2 3 -9 3 -7 0 -8 0 -11 3 -3 4 -3 4 -9 4 -7 0 -7 0 -10 3 -2 3 -3 3 -7 3 -3
0 -4 0 -5 2 -2 5 -4 5 -14 5 -10 0 -10 0 -13 3 -3 3 -3 3 -10 3 -6 0 -6 0 -9
3 -3 4 -3 4 -13 4 -10 0 -10 0 -13 3 -2 3 -2 3 -29 3 -27 0 -27 0 -29 3 -2 3
-2 3 -38 3 -37 0 -37 0 -39 -3z"/>
<path d="M913 1490 c-1 0 -3 -2 -4 -3 -2 -3 -2 -3 -19 -3 -16 0 -16 0 -19 -3
-4 -4 -4 -4 -11 -4 -6 0 -7 0 -8 -2 -2 -4 -3 -4 -10 -4 -5 0 -7 0 -8 -2 -4 -5
-5 -5 -8 -4 -3 0 -3 0 -6 -3 -3 -3 -4 -4 -7 -4 -3 0 -4 -1 -6 -3 -2 -2 -3 -3
-4 -4 -1 0 -2 -2 -3 -3 -2 -3 -3 -3 -6 -3 -4 0 -5 -1 -10 -6 -6 -6 -7 -7 -11
-7 -2 0 -4 0 -4 -1 0 -1 -49 -50 -51 -51 -2 -1 -2 -2 -2 -6 0 -3 0 -5 -1 -5 0
0 -3 -2 -6 -5 -5 -5 -6 -6 -6 -9 0 -4 -1 -5 -7 -10 -5 -6 -6 -7 -6 -9 1 -3 0
-4 -2 -6 -4 -4 -4 -4 -4 -11 0 -7 0 -7 -3 -10 -4 -2 -4 -3 -4 -7 0 -3 0 -4 -3
-5 -3 -2 -3 -2 -3 -13 0 -11 0 -11 -3 -13 -1 -1 -3 -2 -3 -2 -1 -1 -1 -12 -1
-24 0 -23 0 -23 -3 -26 -5 -4 -5 -8 0 -12 4 -4 4 -4 3 -13 0 -10 0 -10 8 -18
5 -4 9 -8 10 -9 0 0 1 -2 2 -3 2 -3 3 -3 6 -3 4 0 5 0 7 -3 2 -3 2 -3 9 -3 7
0 7 0 11 -3 2 -3 4 -4 6 -4 2 0 4 1 6 4 3 3 3 3 10 3 7 0 7 0 9 3 2 2 3 3 6 3
4 0 5 1 12 8 7 7 8 8 8 12 0 3 1 4 3 6 4 2 4 3 4 7 -1 3 -1 4 3 6 3 2 3 2 3
29 0 26 0 26 4 30 3 3 3 3 3 8 -1 6 -1 9 3 11 3 1 3 2 3 5 0 3 1 5 2 6 5 4 5
5 5 8 -1 3 0 4 5 9 3 3 6 5 6 5 0 0 1 1 1 2 1 1 4 4 7 7 6 4 6 5 6 9 0 5 2 7
7 6 2 0 3 0 5 2 1 1 2 3 3 4 3 2 4 3 5 5 1 2 3 2 6 2 3 0 4 0 6 4 3 2 4 3 7 3
3 0 4 1 6 3 3 3 4 3 10 3 6 0 7 0 10 4 3 3 3 3 13 3 10 0 10 0 13 3 3 3 3 3
19 3 16 0 16 0 19 -3 3 -3 3 -3 13 -3 10 0 10 0 13 -3 3 -4 4 -4 10 -4 6 0 7
0 10 -3 2 -2 3 -3 6 -3 3 0 4 -1 7 -3 2 -4 3 -4 6 -4 3 0 5 0 5 -1 1 -1 5 -6
10 -10 10 -10 8 -8 21 -22 6 -6 12 -12 13 -12 2 -1 2 -2 2 -5 0 -4 0 -5 4 -7
3 -3 3 -4 3 -8 0 -3 0 -4 3 -5 4 -2 4 -4 3 -11 0 -5 0 -5 3 -9 4 -3 4 -3 4
-39 0 -34 0 -37 2 -37 4 -3 5 -5 4 -11 0 -6 0 -6 15 -21 14 -14 14 -14 21 -14
6 0 6 0 11 -5 1 -2 3 -2 11 -2 10 0 10 0 13 4 3 2 5 3 8 3 3 0 4 0 5 3 2 3 3
3 6 3 4 0 5 1 9 5 5 4 5 5 5 8 -1 3 -1 4 4 8 1 1 2 3 2 5 0 4 0 5 2 5 4 2 4 2
4 40 0 39 0 37 -5 40 -1 0 -1 2 -1 14 0 13 0 14 -2 16 -5 4 -5 4 -5 10 1 6 1
9 -3 11 -3 1 -3 1 -3 9 0 8 0 8 -3 9 -3 2 -4 5 -4 8 1 2 0 3 -4 7 -1 1 -2 3
-2 6 0 3 0 4 -2 5 -4 1 -5 4 -4 7 0 2 -1 4 -4 7 -3 3 -6 5 -7 6 -2 1 -2 2 -2
5 0 3 -1 5 -2 6 0 1 -13 13 -27 27 -24 24 -26 26 -29 26 -2 0 -5 1 -5 2 -8 8
-11 11 -15 11 -3 0 -4 1 -9 7 -6 5 -7 6 -10 6 -3 0 -4 1 -7 4 -3 3 -3 3 -6 3
-3 -1 -4 -1 -8 4 -1 2 -3 2 -8 2 -6 0 -7 0 -9 2 -1 1 -2 3 -2 3 0 1 -3 1 -6 1
-9 0 -11 1 -13 4 -1 3 -1 3 -15 3 -14 0 -14 0 -16 3 -3 3 -3 3 -34 3 -18 0
-33 0 -34 0z"/>
<path d="M910 1165 c-3 -4 -4 -4 -10 -4 -7 0 -7 0 -12 -5 -2 -3 -5 -6 -6 -6
-1 -1 -2 -2 -4 -2 -3 0 -5 -1 -15 -11 -10 -9 -11 -11 -11 -14 0 -4 -1 -5 -4
-7 -3 -2 -3 -3 -3 -6 0 -4 0 -5 -3 -7 -3 -2 -3 -2 -3 -22 0 -15 0 -21 1 -22 1
0 4 -1 8 -1 6 0 7 0 10 4 4 3 4 3 10 3 6 -1 6 -1 9 2 3 4 3 4 13 4 10 0 11 0
13 3 3 3 3 3 39 3 37 0 37 0 39 -3 2 -3 2 -3 12 -3 11 0 11 0 14 -4 3 -3 3 -3
9 -3 6 1 6 1 10 -2 5 -5 8 -5 12 -1 2 2 5 4 5 5 2 1 2 4 2 18 0 17 0 17 -3 19
-3 2 -3 3 -3 7 0 4 0 4 -3 6 -2 1 -3 2 -4 3 0 1 -1 3 -3 4 -3 1 -3 2 -3 5 0 4
-1 5 -8 12 -7 7 -8 8 -11 8 -4 0 -5 1 -7 4 -2 3 -3 3 -6 3 -4 0 -5 0 -7 3 -2
2 -3 3 -6 3 -3 0 -4 1 -7 4 -3 3 -3 3 -32 3 -29 0 -29 0 -32 -3z"/>
<path d="M929 842 c-2 -3 -2 -3 -16 -3 -14 0 -13 0 -18 -5 -1 -1 -3 -2 -5 -2
-3 0 -4 -1 -6 -3 -2 -2 -3 -3 -6 -3 -4 0 -6 -1 -8 -5 0 0 -2 -1 -5 -2 -4 0 -5
-1 -21 -17 -16 -16 -18 -18 -18 -21 0 -3 -1 -4 -4 -7 -3 -3 -3 -3 -3 -6 1 -3
0 -4 -3 -7 -3 -3 -3 -3 -3 -10 0 -6 0 -6 -3 -9 -3 -3 -3 -3 -3 -35 0 -33 0
-33 3 -36 2 -2 3 -4 3 -7 0 -3 0 -4 3 -6 4 -2 4 -3 3 -10 0 -6 0 -6 3 -9 3 -3
4 -4 4 -7 0 -3 2 -5 18 -21 16 -16 18 -18 21 -18 2 1 3 0 6 -3 2 -2 3 -3 7 -3
4 0 4 0 6 -3 2 -3 2 -3 7 -3 2 0 3 -1 6 -3 3 -4 3 -4 20 -4 17 0 17 0 19 -3 1
-3 2 -3 5 -3 4 0 5 0 7 3 2 3 2 3 19 3 18 0 17 0 22 5 1 1 2 2 5 2 3 0 4 0 6
3 2 2 3 3 6 3 3 0 5 1 8 4 3 3 5 6 6 7 1 1 2 2 5 2 4 0 5 1 12 8 7 7 8 8 8 12
0 3 0 4 3 5 1 1 3 3 4 4 1 2 2 3 4 4 2 1 2 2 2 6 0 4 0 4 3 6 3 1 3 3 3 6 0 3
1 6 4 7 2 2 3 2 3 13 0 11 0 11 3 13 1 1 3 1 3 2 0 0 0 9 0 20 0 20 0 20 -3
23 -3 3 -3 3 -3 13 0 10 0 10 -4 15 -3 2 -5 4 -6 4 -1 0 -3 -2 -5 -4 -3 -4 -4
-5 -4 -8 0 -3 -1 -5 -2 -6 -6 -5 -18 -18 -19 -19 -1 -1 -2 -1 -6 -1 -8 0 -11
-1 -13 -4 -1 -3 -1 -3 -12 -3 -11 0 -11 0 -12 3 -2 3 -4 4 -9 4 -1 0 -6 4 -17
14 l-14 15 0 22 c0 12 0 23 1 24 0 1 2 2 3 2 2 1 3 2 3 6 0 6 7 13 12 13 3 0
5 1 9 5 5 6 6 9 3 13 -1 2 -2 2 -15 2 -14 0 -14 0 -16 3 -2 3 -2 3 -9 3 -7 0
-7 0 -10 -3z"/>
<path d="M1253 702 c0 0 -4 -5 -9 -10 -5 -5 -10 -9 -10 -10 -10 -10 -18 -17
-19 -18 -1 -1 -2 -2 -2 -5 0 -4 -1 -5 -37 -41 -35 -35 -38 -37 -41 -38 -3 0
-5 -1 -8 -5 -3 -2 -5 -5 -5 -6 -1 0 -3 -1 -5 -1 -4 0 -5 -1 -10 -6 -6 -6 -7
-7 -10 -7 -3 0 -4 -1 -7 -3 -2 -3 -4 -4 -7 -4 -3 0 -4 -1 -6 -3 -2 -2 -3 -3
-6 -3 -3 0 -4 -1 -6 -3 -3 -3 -3 -4 -10 -4 -7 0 -7 0 -10 -3 -2 -3 -3 -3 -7
-3 -3 0 -4 0 -5 -3 -2 -3 -2 -3 -13 -3 -10 0 -10 0 -13 -3 -3 -4 -3 -4 -17 -4
-13 0 -13 0 -16 -3 -3 -3 -3 -3 -47 -3 -24 0 -45 0 -46 0 0 0 -2 1 -4 3 -2 3
-2 3 -19 3 -16 0 -16 0 -20 4 -3 3 -3 3 -9 3 -6 -1 -6 -1 -9 3 -3 3 -4 3 -10
3 -7 0 -8 0 -10 3 -3 3 -3 4 -10 4 -7 0 -7 0 -10 3 -2 3 -2 3 -9 3 -7 0 -9 1
-11 5 0 1 -2 1 -5 1 -3 0 -4 0 -7 4 -2 3 -3 3 -7 3 -3 0 -4 0 -5 2 -2 4 -3 4
-10 4 -7 0 -8 0 -10 4 -2 3 -3 3 -6 3 -4 0 -5 0 -7 3 -2 2 -3 3 -6 3 -3 0 -4
1 -6 3 -3 4 -3 4 -14 4 -11 0 -11 0 -13 3 -1 3 -1 3 -25 3 -23 0 -23 0 -26 -3
-3 -3 -3 -3 -10 -3 -6 0 -6 0 -15 -9 -7 -7 -8 -8 -7 -11 0 -3 0 -4 -5 -8 -2
-1 -2 -4 -2 -21 0 -19 0 -19 5 -24 2 -2 5 -4 6 -5 2 -1 2 -2 2 -5 0 -6 2 -8 6
-8 3 1 4 0 10 -6 6 -6 7 -7 11 -7 3 0 4 0 6 -3 1 -3 2 -3 5 -3 4 0 5 -1 10 -6
6 -6 7 -7 11 -7 3 0 4 0 6 -3 1 -3 2 -3 5 -3 4 0 5 -1 14 -10 9 -9 10 -10 13
-10 3 0 5 -1 10 -6 3 -4 7 -7 8 -8 1 -1 4 -4 6 -7 3 -2 6 -5 7 -6 1 -1 5 -6 9
-10 10 -9 9 -8 23 -23 7 -7 13 -12 13 -12 1 0 1 -2 1 -4 0 -4 0 -5 23 -27 22
-22 23 -23 23 -27 0 -4 1 -5 5 -5 4 -1 5 -1 24 -20 18 -18 19 -19 23 -19 3 0
4 0 6 -3 1 -3 1 -3 15 -3 14 0 14 0 17 -4 3 -3 3 -3 13 -3 10 0 10 0 13 3 2 4
2 4 13 4 11 0 11 0 13 3 1 3 2 3 5 3 4 0 5 1 13 10 9 8 10 9 13 9 3 0 5 1 6 2
5 6 11 11 12 12 1 1 2 2 2 5 0 4 1 5 13 17 12 12 13 13 13 17 0 3 0 4 3 5 2 1
3 3 3 4 1 1 4 4 7 7 5 4 6 5 6 8 0 4 1 5 13 17 12 11 13 13 13 16 0 3 1 5 6
10 4 3 7 7 8 8 1 1 3 2 4 3 1 0 1 2 1 4 0 4 1 5 31 34 27 28 30 31 33 31 3 0
5 1 15 12 14 13 13 13 23 22 4 4 8 9 9 10 1 1 4 4 7 6 2 3 5 5 6 6 1 1 5 6 10
11 5 4 9 8 10 9 0 1 6 7 12 13 11 10 12 11 12 15 0 3 1 4 10 12 8 9 9 10 9 13
0 4 1 5 4 7 3 2 3 3 3 6 0 4 2 6 12 15 1 1 1 3 1 11 -1 9 -1 9 3 13 3 3 3 3 3
13 1 10 -1 13 -5 14 -1 0 -1 2 -1 5 0 3 -1 4 -2 5 -1 1 -3 3 -4 5 -3 3 -3 3
-21 3 -9 0 -17 0 -17 -1z"/>
</g>
</svg>
